<?xml version="1.0" encoding="UTF-8" standalone="no"?>
<svg
   xmlns:dc="http://purl.org/dc/elements/1.1/"
   xmlns:cc="http://creativecommons.org/ns#"
   xmlns:rdf="http://www.w3.org/1999/02/22-rdf-syntax-ns#"
   xmlns:svg="http://www.w3.org/2000/svg"
   xmlns="http://www.w3.org/2000/svg"
   xmlns:sodipodi="http://sodipodi.sourceforge.net/DTD/sodipodi-0.dtd"
   xmlns:inkscape="http://www.inkscape.org/namespaces/inkscape"
   height="128px"
   id="Layer_1"
   style="enable-background:new 0 0 128 128;"
   version="1.1"
   viewBox="0 0 128 128"
   width="128px"
   xml:space="preserve"
   inkscape:version="0.48.5 r10040"
   sodipodi:docname="1430500372_Socialmedia_icons_LinkedIn.svg"><metadata
     id="metadata3000"><rdf:RDF><cc:Work
         rdf:about=""><dc:format>image/svg+xml</dc:format><dc:type
           rdf:resource="http://purl.org/dc/dcmitype/StillImage" /></cc:Work></rdf:RDF></metadata><defs
     id="defs2998" /><sodipodi:namedview
     pagecolor="#ffffff"
     bordercolor="#666666"
     borderopacity="1"
     objecttolerance="10"
     gridtolerance="10"
     guidetolerance="10"
     inkscape:pageopacity="0"
     inkscape:pageshadow="2"
     inkscape:window-width="1074"
     inkscape:window-height="1046"
     id="namedview2996"
     showgrid="false"
     inkscape:zoom="6.75"
     inkscape:cx="64"
     inkscape:cy="64"
     inkscape:window-x="844"
     inkscape:window-y="32"
     inkscape:window-maximized="0"
     inkscape:current-layer="g2988" /><style
     type="text/css"
     id="style2986">
	.st0{fill-rule:evenodd;clip-rule:evenodd;}
</style><g
     id="g2988"><g
       id="g3177"
       transform="translate(0,-16)"><rect
         id="rect2990"
         y="47.708"
         x="16.452"
         width="20.914"
         height="62.915001" /><path
         id="path2992"
         d="m 27.048,17.377 c -7.155,0 -11.838,4.695 -11.838,10.868 0,6.041 4.545,10.877 11.562,10.877 h 0.141 c 7.293,0 11.832,-4.836 11.832,-10.877 C 38.607,22.072 34.206,17.377 27.048,17.377 z"
         inkscape:connector-curvature="0" /><path
         id="path2994"
         d="m 88.706,46.229 c -11.11,0 -16.075,6.116 -18.853,10.396 v 0.204 h -0.135 c 0.039,-0.064 0.096,-0.138 0.135,-0.204 V 47.708 H 48.937 c 0.279,5.904 0,62.915 0,62.915 H 69.854 V 75.486 c 0,-1.884 0.141,-3.754 0.693,-5.1 1.515,-3.761 4.954,-7.65 10.734,-7.65 7.569,0 10.597,5.772 10.597,14.227 v 33.661 h 20.914 V 74.545 C 112.791,55.22 102.473,46.229 88.706,46.229 z"
         inkscape:connector-curvature="0" /></g></g></svg>